<?xml version="1.0" encoding="UTF-8"?>
<svg width="42px" height="40px" viewBox="0 0 42 40" version="1.1" xmlns="http://www.w3.org/2000/svg" xmlns:xlink="http://www.w3.org/1999/xlink">
    <!-- Generator: Sketch 54 (76480) - https://sketchapp.com -->
    <title>Shape Copy</title>
    <desc>Created with Sketch.</desc>
    <g id="Twitter-Profile" stroke="none" stroke-width="1" fill="none" fill-rule="evenodd">
        <g id="twitter_logo-copy-2" transform="translate(-6.000000, -960.000000)" fill="#00C386">
            <path d="M47.7209302,977.062937 L32.3457467,965.850174 C32.3457467,965.850174 23.7663814,972.476357 18.1909744,976.331674 L16.6046512,971.57844 L32.3457467,960 L45.2803151,969.506492 L47.7209302,977.062937 Z M29.7209302,960 L14.9603028,971.094112 L20.2057969,987.552448 L15.4482509,987.552448 L9.34883721,969.509243 L22.2796075,960 L29.7209302,960 Z M28.3255814,970.732511 C29.7958155,969.586167 30.8630419,968.698833 32.3332761,967.552448 L48,978.927196 L43.3848877,994.093499 L37.1911328,998.741259 L42.777635,981.006467 L28.3255814,970.732511 Z M36.758001,978.741259 L41.0232558,981.65672 L35.1737516,1000 L20.184392,1000 L13.1162791,995.505283 L31.3959486,995.505283 L36.758001,978.741259 Z M31.9534884,989.21699 L30.606853,993.986014 L11.0192903,993.986014 L6,979.067585 L8.32601969,971.608392 L14.6919661,989.21699 L31.9534884,989.21699 Z" id="Shape-Copy"></path>
        </g>
    </g>
</svg>