<svg height="26" viewBox="0 0 176 26" width="176" xmlns="http://www.w3.org/2000/svg"><g fill-rule="evenodd"><g transform="translate(39.35865 2.228571)"><path d="m93.7496962 9.14311705h-6.7502276v-8.67467472h-3.617214v20.84212007h3.617214v-9.2615674h6.7502276z"/><path d="m96.5026674 21.3105624h3.4072959v-20.84212007h-3.4072959z"/><path d="m9.46732897 11.8097549-4.26299242-11.34131257h-4.68950531v20.84212007h3.60305918v-6.8710107l-.35734142-9.17570285 4.20931107 11.01273495z"/><path d="m14.1405429 8.62670058-4.24990589 12.67547312.00320485.0083887h2.58765404l6.1482488-16.06103322-.3576084 9.19002252v6.8710107h3.6030591v-20.84212007h-4.6750834z"/><path d="m41.7199299 16.8157621c.5747375-1.2601577.9155205-2.6851519 1.0218148-4.2750628h-3.6158786c-.1188467 1.8093545-.5408194 3.2248379-1.2661851 4.2464502-.8581001 1.2215-2.0874294 1.8322767-3.6887891 1.8322767-1.5823975 0-2.8213414-.6250964-3.7173657-1.8752357-.737918-1.0407408-1.1687041-2.4418511-1.2923581-4.2034912h-3.6193505c.1070956 1.5911398.4574932 3.0209429 1.0514598 4.2893825.7242974 1.5268883 1.7442428 2.7054827 3.059569 3.5357297 1.3249408.8206828 2.830956 1.2310375 4.5180455 1.2310375 1.7060516 0 3.2120668-.4103547 4.5177785-1.2310375 1.3155933-.830247 2.3259241-2.0135968 3.0312595-3.5500494z"/><path d="m41.6913532 4.93463001c.6567284 1.40306055 1.0159393 3.01971395 1.0770987 4.84982661h-3.6166798c-.0665008-2.03699984-.501827-3.62025848-1.3065129-4.74964235-.8674477-1.23106421-2.1015843-1.84659631-3.7029439-1.84659631-1.5631684 0-2.7882246.6155321-3.6743672 1.84659631-.8177724 1.13918857-1.2624461 2.72242049-1.3345554 4.74964235h-3.6164127c.0630288-1.79169534.4168983-3.38924693 1.0621426-4.79257464.7242974-1.55552764 1.7394355-2.74363284 3.0451472-3.56434231 1.3153262-.83024702 2.8213414-1.24538388 4.5180455-1.24538388 1.696437 0 3.1976449.41035473 4.5036237 1.23106421 1.3153262.81114521 2.3304643 1.98495746 3.0454142 3.52141001z"/><path d="m58.7176841 21.3105624h3.3616267v-.1860755l-4.6750835-8.6889944c1.2010197-.5057836 2.1349681-1.2262821 2.8021123-2.1615222.6764916-.94475096 1.0151381-2.11378108 1.0151381-3.50709036 0-2.04220943-.6527223-3.60251919-1.9589682-4.68087587-1.3054446-1.0783834-3.1594537-1.61756174-5.5614931-1.61756174h-7.3201578v20.84212007h3.6169468v-8.0305032h1.6969712l-1.430701-2.9058779h-.2662702v-6.98554139h3.8175175c1.258173.01907509 2.202003.33400097 2.830956.94475095.6385675.61077669.9577177 1.47441846.9577177 2.59095202 0 1.06884586-.3431866 1.91341254-1.0292928 2.53370006-.6863733.61074996-1.6395509.91613836-2.8595326.91613836h-.381912z"/><path d="m68.270024 21.3105624v-7.7442167h4.3035872c2.411387 0 4.2843581-.5678177 5.6186464-1.703453 1.34417-1.1356087 2.0161214-2.72453106 2.0161214-4.7667672 0-1.994495-.6863733-3.59773707-2.0588528-4.80972619-1.363132-1.21196241-3.2072594-1.81795698-5.5329165-1.81795698h-7.9637997v7.56204167h3.617214v-4.64184409h4.4464704c1.2010197.01907509 2.1445827.36739573 2.830956 1.04496193.6861062.66802866 1.0292928 1.56506518 1.0292928 2.691163 0 1.1451729-.3381123 2.02313434-1.0151381 2.63388432-.5547071.49282644-1.314525.78362794-2.2789195.87251144-.5750046.0971653-1.2958301.1555661-2.1688862.1555661l-.2374264-.0002404-.0259059.0002404h-6.1976571v10.5238357z"/><path d="m104.199396 14.5452395h3.616947v3.8737647h9.994075v2.8915582h-13.611022z"/><path d="m104.199396 6.02594385v5.76305295h12.166968v-2.64587975h-8.550021v-3.1171732z"/><path d="m104.199396 3.26970116v-2.80125883h13.510871v2.80125883z"/><path d="m124.372895 13.2800592h1.636346l-1.430434-2.9058779h-.205912v-6.98554139h3.81725c1.258173.01907509 2.202003.33400097 2.830956.94475095.638568.61077669.957985 1.47441846.957985 2.59095202 0 1.06884586-.343186 1.91341254-1.029293 2.53370006-.686373.61074996-1.639551.91613836-2.859532.91613836h-.44227l5.384157 10.9363811h3.421985v-.1860755l-4.67535-8.6889944c1.201019-.5057836 2.134968-1.2262821 2.802379-2.1615222.676759-.94475096 1.015138-2.11378108 1.015138-3.50709036 0-2.04220943-.652989-3.60251919-1.958701-4.68087587-1.305979-1.0783834-3.159721-1.61756174-5.56176-1.61756174h-7.320158v20.84212007h3.617214z"/></g><path d="m20.0508334 12.0923473 2.7540394 1.8868837-3.776976 11.8717549h-9.67850439l-4.56382155-2.9089769h11.80303004zm-2.9114246-7.07589422 10.1507399 7.31174132-2.9902106 9.7489706-4.0130404 2.9876015 3.6195909-11.4000072-9.3637341-6.60414654c.95259-.73687529 1.6440643-1.30725769 2.5966543-2.04415968zm-15.50132686 2.51588061 4.09171958 11.32138261h11.09486378l-.8655515 3.0662262h-12.58992897l-3.22615478-9.5917481zm13.84890316-7.46897983-9.52111924 7.1544814 3.38352655 10.61381454h-3.068783l-3.93433445-11.63588102 8.34079754-6.13241492zm1.6524237 0 8.3408243 6.13241492 1.5738246 4.87448532-9.9146489-7.23309001s-5.5323824 4.27439493-9.1276698 6.76136901l-1.02293657-3.06619941z"/></g></svg>