<?xml version="1.0" encoding="UTF-8"?>
<svg width="193px" height="90px" viewBox="0 0 193 90" version="1.1" xmlns="http://www.w3.org/2000/svg" xmlns:xlink="http://www.w3.org/1999/xlink">
    <title>Group 5</title>
    <defs>
        <linearGradient x1="75.2342817%" y1="44.5622527%" x2="2.5391247%" y2="58.9804545%" id="linearGradient-1">
            <stop stop-color="#8B939A" offset="0%"></stop>
            <stop stop-color="#5B6467" offset="100%"></stop>
        </linearGradient>
    </defs>
    <g id="Icons" stroke="none" stroke-width="1" fill="none" fill-rule="evenodd">
        <g id="Artboard" transform="translate(-32.000000, -323.000000)">
            <g id="Group" transform="translate(26.000000, 207.000000)">
                <g id="Group-5" transform="translate(6.000000, 116.000000)">
                    <g id="np_smartphone_3693109_000000" fill-rule="nonzero">
                        <path d="M140.807727,6.84668182 L165.860864,17.6370273 C167.187738,18.2044882 168.639845,18.3880873 170.066936,18.14608 L173.563523,17.5702659 C174.765227,17.3699818 175.991927,17.5118492 177.126977,17.9624809 L183.828109,20.6745945 C186.006132,21.5591773 186.073,24.6136218 183.936596,25.5982718 L70.6665958,77.4627718 C66.2270185,79.4990041 61.1364912,79.5407273 56.663373,77.5796053 L7.99487305,56.2659598 C6.0921635,55.4314321 6.0921635,52.744378 7.99487305,51.9097007 L122.790237,1.43810982 C126.6374,-0.255962455 131.001991,-0.322723818 134.907478,1.23782573 L140.782478,3.632903 C141.032838,3.73304505 141.141323,4.03347118 141.0078,4.27547845 L140.348539,5.460498 C140.056456,5.97790391 140.273433,6.62047936 140.807516,6.84580164 L140.807727,6.84668182 Z" id="Path" fill="#000000"></path>
                        <path d="M160.928,13.6146818 C160.827858,13.6146818 160.736061,13.5979904 160.64427,13.5562651 L152.975151,10.2765196 C152.607953,10.1179609 152.432707,9.69235236 152.591268,9.31682236 C152.749827,8.94962418 153.183767,8.77437827 153.550965,8.93293918 L161.220084,12.2126846 C161.587282,12.3712413 161.762528,12.7968519 161.603967,13.1723819 C161.478791,13.4477805 161.211752,13.6146818 160.928,13.6146818 L160.928,13.6146818 Z" id="Path" fill="#000000"></path>
                        <path d="M189.194227,22.1174091 C190.721385,23.5861591 190.462693,26.3234818 188.317976,27.3081318 L72.6616582,80.1916773 C66.8033218,82.8704636 60.0771945,82.9037909 54.1938627,80.2834747 L4.02349909,57.9520656 C1.92885864,57.0174065 1.55343545,54.4471474 2.85518591,52.878202 C-1.59272318,56.7753565 -0.825127727,64.4780156 5.12507227,67.0649383 L52.1912995,87.5691156 C59.4598495,90.732002 67.7299268,90.6484701 74.924345,87.3271083 L187.792709,35.2874265 C193.292136,32.7504947 193.684372,25.440072 189.194697,22.1186674 L189.194227,22.1174091 Z M168.097636,42.2626773 L155.513173,48.2712 C155.37965,48.3379614 155.237774,48.3629974 155.09592,48.3629974 C154.728721,48.3629974 154.386583,48.1627133 154.219669,47.8122215 C153.985993,47.328207 154.194633,46.7440397 154.678645,46.5187174 L167.263109,40.5101947 C167.747123,40.2765192 168.33129,40.4851586 168.556613,40.969171 C168.790267,41.4448538 168.581647,42.0289997 168.097636,42.2626751 L168.097636,42.2626773 Z" id="Shape" fill="url(#linearGradient-1)"></path>
                    </g>
                    <rect id="Rectangle" fill="#228CDB" x="12" y="8" width="106" height="25" rx="7"></rect>
                    <path d="M29.5566406,25.2109375 C30.7988281,25.2109375 31.8037109,24.8447266 32.5712891,24.1123047 C33.3388672,23.3798828 33.7226562,22.4101562 33.7226562,21.203125 L33.7226562,21.203125 L33.7226562,20.4472656 C33.6992188,19.2636719 33.3095703,18.3085938 32.5537109,17.5820312 C31.7978516,16.8554688 30.7871094,16.4921875 29.5214844,16.4921875 C28.3027344,16.4921875 27.3066406,16.8613281 26.5332031,17.5996094 C25.7597656,18.3378906 25.3730469,19.3164062 25.3730469,20.5351562 L25.3730469,20.5351562 L25.3730469,21.1503906 C25.3730469,22.4042969 25.7626953,23.3945312 26.5419922,24.1210938 C27.3212891,24.8476562 28.3261719,25.2109375 29.5566406,25.2109375 Z M43.7941406,25.2109375 C45.0363281,25.2109375 46.0412109,24.8447266 46.8087891,24.1123047 C47.5763672,23.3798828 47.9601562,22.4101562 47.9601562,21.203125 L47.9601562,21.203125 L47.9601562,20.4472656 C47.9367187,19.2636719 47.5470703,18.3085938 46.7912109,17.5820312 C46.0353516,16.8554688 45.0246094,16.4921875 43.7589844,16.4921875 C42.5402344,16.4921875 41.5441406,16.8613281 40.7707031,17.5996094 C39.9972656,18.3378906 39.6105469,19.3164062 39.6105469,20.5351562 L39.6105469,20.5351562 L39.6105469,21.1503906 C39.6105469,22.4042969 40.0001953,23.3945312 40.7794922,24.1210938 C41.5587891,24.8476562 42.5636719,25.2109375 43.7941406,25.2109375 Z M58.0316406,25.2109375 C59.2738281,25.2109375 60.2787109,24.8447266 61.0462891,24.1123047 C61.8138672,23.3798828 62.1976562,22.4101562 62.1976562,21.203125 L62.1976562,21.203125 L62.1976562,20.4472656 C62.1742187,19.2636719 61.7845703,18.3085938 61.0287109,17.5820312 C60.2728516,16.8554688 59.2621094,16.4921875 57.9964844,16.4921875 C56.7777344,16.4921875 55.7816406,16.8613281 55.0082031,17.5996094 C54.2347656,18.3378906 53.8480469,19.3164062 53.8480469,20.5351562 L53.8480469,20.5351562 L53.8480469,21.1503906 C53.8480469,22.4042969 54.2376953,23.3945312 55.0169922,24.1210938 C55.7962891,24.8476562 56.8011719,25.2109375 58.0316406,25.2109375 Z M72.2691406,25.2109375 C73.5113281,25.2109375 74.5162109,24.8447266 75.2837891,24.1123047 C76.0513672,23.3798828 76.4351563,22.4101562 76.4351563,21.203125 L76.4351563,21.203125 L76.4351563,20.4472656 C76.4117188,19.2636719 76.0220703,18.3085938 75.2662109,17.5820312 C74.5103516,16.8554688 73.4996094,16.4921875 72.2339844,16.4921875 C71.0152344,16.4921875 70.0191406,16.8613281 69.2457031,17.5996094 C68.4722656,18.3378906 68.0855469,19.3164062 68.0855469,20.5351562 L68.0855469,20.5351562 L68.0855469,21.1503906 C68.0855469,22.4042969 68.4751953,23.3945312 69.2544922,24.1210938 C70.0337891,24.8476562 71.0386719,25.2109375 72.2691406,25.2109375 Z M86.5066406,25.2109375 C87.7488281,25.2109375 88.7537109,24.8447266 89.5212891,24.1123047 C90.2888672,23.3798828 90.6726562,22.4101562 90.6726562,21.203125 L90.6726562,21.203125 L90.6726562,20.4472656 C90.6492187,19.2636719 90.2595703,18.3085938 89.5037109,17.5820312 C88.7478516,16.8554688 87.7371094,16.4921875 86.4714844,16.4921875 C85.2527344,16.4921875 84.2566406,16.8613281 83.4832031,17.5996094 C82.7097656,18.3378906 82.3230469,19.3164062 82.3230469,20.5351562 L82.3230469,20.5351562 L82.3230469,21.1503906 C82.3230469,22.4042969 82.7126953,23.3945312 83.4919922,24.1210938 C84.2712891,24.8476562 85.2761719,25.2109375 86.5066406,25.2109375 Z M100.744141,25.2109375 C101.986328,25.2109375 102.991211,24.8447266 103.758789,24.1123047 C104.526367,23.3798828 104.910156,22.4101562 104.910156,21.203125 L104.910156,21.203125 L104.910156,20.4472656 C104.886719,19.2636719 104.49707,18.3085938 103.741211,17.5820312 C102.985352,16.8554688 101.974609,16.4921875 100.708984,16.4921875 C99.4902344,16.4921875 98.4941406,16.8613281 97.7207031,17.5996094 C96.9472656,18.3378906 96.5605469,19.3164062 96.5605469,20.5351562 L96.5605469,20.5351562 L96.5605469,21.1503906 C96.5605469,22.4042969 96.9501953,23.3945312 97.7294922,24.1210938 C98.5087891,24.8476562 99.5136719,25.2109375 100.744141,25.2109375 Z" id="••••••" fill="#FFFFFF" fill-rule="nonzero"></path>
                </g>
            </g>
        </g>
    </g>
</svg>