<?xml version="1.0" encoding="UTF-8"?>
<svg width="131px" height="94px" viewBox="0 0 131 94" version="1.1" xmlns="http://www.w3.org/2000/svg" xmlns:xlink="http://www.w3.org/1999/xlink">
    <title>Path</title>
    <g id="Icons" stroke="none" stroke-width="1" fill="none" fill-rule="evenodd">
        <g id="Artboard" transform="translate(-230.000000, -81.000000)" fill="#00C386" fill-rule="nonzero">
            <path d="M283.219845,175 C280.901747,175 278.680853,174.080178 277.038075,172.44542 L232.55862,130.656395 C230.921082,129.02161 230,126.804449 230,124.490248 C230,122.176046 230.921108,119.958886 232.55862,118.329201 L238.74039,112.168155 C240.444478,110.456731 242.680699,109.608735 244.911812,109.608735 C247.148033,109.608735 249.384386,110.456783 251.088342,112.163054 L283.219452,142.304564 L339.908389,83.5543187 C341.545927,81.9195338 343.77193,81 346.084919,81 L346.090037,81 C348.403027,81 350.623921,81.91956 352.261459,83.5543187 L358.443229,89.7153652 C361.851404,93.1178103 361.851404,98.6402444 358.448346,102.042689 L289.395345,172.445681 C287.757807,174.080466 285.531804,175 283.218814,175 L283.219845,175 Z" id="Path"></path>
        </g>
    </g>
</svg>