<?xml version="1.0" encoding="UTF-8"?>
<svg width="94px" height="94px" viewBox="0 0 94 94" version="1.1" xmlns="http://www.w3.org/2000/svg" xmlns:xlink="http://www.w3.org/1999/xlink">
    <title>Group</title>
    <g id="Icons" stroke="none" stroke-width="1" fill="none" fill-rule="evenodd">
        <g id="Artboard" transform="translate(-26.000000, -207.000000)" fill-rule="nonzero">
            <g id="Group" transform="translate(26.000000, 207.000000)">
                <path d="M93.90788,91.2345595 C93.96663,90.9922181 93.9996766,90.7425259 93.9996766,90.4818263 L93.9996766,34.7652063 L55.8159366,63.0977463 L93.90788,91.2345595 Z" id="Path" fill="#228CDB"></path>
                <path d="M51.3804,64.5432595 C51.3730567,64.5395879 51.3693851,64.5359162 51.3620409,64.5322446 L48.6632069,62.5384106 C48.1968823,62.189586 47.6203709,62.017002 47.0475349,62.017002 C46.4746989,62.017002 45.8981969,62.1895766 45.4318629,62.5384106 L42.6375249,64.6019926 C42.6301806,64.6056652 42.6228374,64.6093368 42.6191657,64.616681 L2.95962572,93.903321 C3.24235892,93.962071 3.53610892,93.9987874 3.84087572,93.9987874 L90.1591957,93.9987874 C90.4859961,93.9987874 90.8054457,93.9583966 91.1065277,93.8849628 L51.3804,64.5432595 Z" id="Path" fill="#228CDB"></path>
                <path d="M1.36921585e-13,34.8373795 L1.36921585e-13,90.4806795 C1.36921585e-13,90.7597467 0.04039086,91.0277877 0.1064832,91.2884967 L38.1840032,63.1655767 L1.36921585e-13,34.8373795 Z" id="Path" fill="#228CDB"></path>
                <path d="M41.3788,60.809227 L42.902634,59.681979 L42.9099782,59.6783064 C45.1571422,58.0149764 48.3590642,57.9121404 50.7237282,59.3661982 C50.88162,59.4616646 51.0358364,59.5681478 51.1863868,59.6783064 L52.4348008,60.5999482 L83.7744008,37.3753682 L83.7744008,9.63032824 C83.7744008,8.61691424 82.8747926,7.79441424 81.7659028,7.79441424 L11.6071228,7.79441424 C10.4982048,7.79441424 9.59862482,8.61691424 9.59862482,9.63032824 L9.59862482,37.2277882 L41.3788,60.809227 Z" id="Path" fill="#EEEEEE"></path>
                <polygon id="Path" fill="#145789" points="87.59296 34.544687 91.654042 31.537439 87.59296 28.478773"></polygon>
                <path d="M55.26542,4.14510394 L52.21042,1.84650502 C48.935084,-0.620994975 44.183666,-0.613662975 40.91538,1.85751994 L37.897134,4.14510394 L55.26542,4.14510394 Z" id="Path" fill="#145789"></path>
                <polygon id="Path" fill="#145789" points="5.63624 28.566287 1.74041 31.514785 5.63624 34.411865"></polygon>
                <path d="M25.01152,34.2117395 C25.53792,34.2117395 26.01544,34.0838995 26.44408,33.8282195 C26.87272,33.5725395 27.21488,33.2303795 27.47056,32.8017395 C27.72624,32.3730995 27.85408,31.9030995 27.85408,31.3917395 C27.85408,30.8653395 27.72624,30.3915795 27.47056,29.9704595 C27.21488,29.5493395 26.87272,29.2109395 26.44408,28.9552595 C26.01544,28.6995795 25.53792,28.5717395 25.01152,28.5717395 C24.5152,28.5717395 24.04896,28.6995795 23.6128,28.9552595 C23.17664,29.2109395 22.83448,29.5493395 22.58632,29.9704595 C22.33816,30.3915795 22.21408,30.8653395 22.21408,31.3917395 C22.21408,31.9030995 22.33816,32.3730995 22.58632,32.8017395 C22.83448,33.2303795 23.17664,33.5725395 23.6128,33.8282195 C24.04896,34.0838995 24.5152,34.2117395 25.01152,34.2117395 Z M33.69712,34.2117395 C34.22352,34.2117395 34.70104,34.0838995 35.12968,33.8282195 C35.55832,33.5725395 35.90048,33.2303795 36.15616,32.8017395 C36.41184,32.3730995 36.53968,31.9030995 36.53968,31.3917395 C36.53968,30.8653395 36.41184,30.3915795 36.15616,29.9704595 C35.90048,29.5493395 35.55832,29.2109395 35.12968,28.9552595 C34.70104,28.6995795 34.22352,28.5717395 33.69712,28.5717395 C33.2008,28.5717395 32.73456,28.6995795 32.2984,28.9552595 C31.86224,29.2109395 31.52008,29.5493395 31.27192,29.9704595 C31.02376,30.3915795 30.89968,30.8653395 30.89968,31.3917395 C30.89968,31.9030995 31.02376,32.3730995 31.27192,32.8017395 C31.52008,33.2303795 31.86224,33.5725395 32.2984,33.8282195 C32.73456,34.0838995 33.2008,34.2117395 33.69712,34.2117395 Z M42.38272,34.2117395 C42.90912,34.2117395 43.38664,34.0838995 43.81528,33.8282195 C44.24392,33.5725395 44.58608,33.2303795 44.84176,32.8017395 C45.09744,32.3730995 45.22528,31.9030995 45.22528,31.3917395 C45.22528,30.8653395 45.09744,30.3915795 44.84176,29.9704595 C44.58608,29.5493395 44.24392,29.2109395 43.81528,28.9552595 C43.38664,28.6995795 42.90912,28.5717395 42.38272,28.5717395 C41.8864,28.5717395 41.42016,28.6995795 40.984,28.9552595 C40.54784,29.2109395 40.20568,29.5493395 39.95752,29.9704595 C39.70936,30.3915795 39.58528,30.8653395 39.58528,31.3917395 C39.58528,31.9030995 39.70936,32.3730995 39.95752,32.8017395 C40.20568,33.2303795 40.54784,33.5725395 40.984,33.8282195 C41.42016,34.0838995 41.8864,34.2117395 42.38272,34.2117395 Z M51.06832,34.2117395 C51.59472,34.2117395 52.07224,34.0838995 52.50088,33.8282195 C52.92952,33.5725395 53.27168,33.2303795 53.52736,32.8017395 C53.78304,32.3730995 53.91088,31.9030995 53.91088,31.3917395 C53.91088,30.8653395 53.78304,30.3915795 53.52736,29.9704595 C53.27168,29.5493395 52.92952,29.2109395 52.50088,28.9552595 C52.07224,28.6995795 51.59472,28.5717395 51.06832,28.5717395 C50.572,28.5717395 50.10576,28.6995795 49.6696,28.9552595 C49.23344,29.2109395 48.89128,29.5493395 48.64312,29.9704595 C48.39496,30.3915795 48.27088,30.8653395 48.27088,31.3917395 C48.27088,31.9030995 48.39496,32.3730995 48.64312,32.8017395 C48.89128,33.2303795 49.23344,33.5725395 49.6696,33.8282195 C50.10576,34.0838995 50.572,34.2117395 51.06832,34.2117395 Z M59.75392,34.2117395 C60.28032,34.2117395 60.75784,34.0838995 61.18648,33.8282195 C61.61512,33.5725395 61.95728,33.2303795 62.21296,32.8017395 C62.46864,32.3730995 62.59648,31.9030995 62.59648,31.3917395 C62.59648,30.8653395 62.46864,30.3915795 62.21296,29.9704595 C61.95728,29.5493395 61.61512,29.2109395 61.18648,28.9552595 C60.75784,28.6995795 60.28032,28.5717395 59.75392,28.5717395 C59.2576,28.5717395 58.79136,28.6995795 58.3552,28.9552595 C57.91904,29.2109395 57.57688,29.5493395 57.32872,29.9704595 C57.08056,30.3915795 56.95648,30.8653395 56.95648,31.3917395 C56.95648,31.9030995 57.08056,32.3730995 57.32872,32.8017395 C57.57688,33.2303795 57.91904,33.5725395 58.3552,33.8282195 C58.79136,34.0838995 59.2576,34.2117395 59.75392,34.2117395 Z M68.43952,34.2117395 C68.96592,34.2117395 69.44344,34.0838995 69.87208,33.8282195 C70.30072,33.5725395 70.64288,33.2303795 70.89856,32.8017395 C71.15424,32.3730995 71.28208,31.9030995 71.28208,31.3917395 C71.28208,30.8653395 71.15424,30.3915795 70.89856,29.9704595 C70.64288,29.5493395 70.30072,29.2109395 69.87208,28.9552595 C69.44344,28.6995795 68.96592,28.5717395 68.43952,28.5717395 C67.9432,28.5717395 67.47696,28.6995795 67.0408,28.9552595 C66.60464,29.2109395 66.26248,29.5493395 66.01432,29.9704595 C65.76616,30.3915795 65.64208,30.8653395 65.64208,31.3917395 C65.64208,31.9030995 65.76616,32.3730995 66.01432,32.8017395 C66.26248,33.2303795 66.60464,33.5725395 67.0408,33.8282195 C67.47696,34.0838995 67.9432,34.2117395 68.43952,34.2117395 Z" id="••••••" fill="#333333"></path>
            </g>
        </g>
    </g>
</svg>