<?xml version="1.0" encoding="UTF-8"?>
<svg width="24px" height="24px" viewBox="0 0 24 24" version="1.1" xmlns="http://www.w3.org/2000/svg" xmlns:xlink="http://www.w3.org/1999/xlink">
    <title>google_logo_white</title>
    <g id="Icons" stroke="none" stroke-width="1" fill="none" fill-rule="evenodd">
        <g id="White-Social-Icons" transform="translate(-35.000000, -30.000000)" fill="#FFFFFF" fill-rule="nonzero">
            <path d="M47,30 C50.24,30 52.95,31.19 55.02,33.13 L55.02,33.13 L51.6,36.55 C50.35,35.36 48.77,34.75 47,34.75 C43.87,34.75 41.22,36.86 40.27,39.71 L40.27,39.71 C40.03,40.43 39.89,41.2 39.89,42 C39.89,42.8 40.02,43.57 40.27,44.29 L40.27,44.29 C41.22,47.14 43.87,49.25 47,49.25 C48.62,49.25 49.99,48.81 51.07,48.09 L51.07,48.09 L51.3014087,47.925979 C52.4340625,47.0828516 53.198125,45.8975 53.47,44.51 L53.47,44.51 L47,44.51 L47,40 L58.3,40 C58.42,40.73 58.49,41.48 58.49,42.27 C58.49,45.92 57.19,49 54.93,51.09 C52.95,52.92 50.24,54 47,54 C42.31,54 38.26,51.3 36.29,47.38 L36.29,47.38 L36.29,47.378 C35.5285714,45.8757143 35.0689286,44.1989796 35.0071501,42.4138484 L35,42 C35,40.06 35.47,38.24 36.29,36.62 L36.29,36.62 C38.2606925,32.6995383 42.310401,30 47,30 Z" id="google_logo_white"></path>
        </g>
    </g>
</svg>