<?xml version="1.0" encoding="UTF-8"?>
<svg width="95px" height="94px" viewBox="0 0 95 94" version="1.1" xmlns="http://www.w3.org/2000/svg" xmlns:xlink="http://www.w3.org/1999/xlink">
    <title>password</title>
    <defs>
        <linearGradient x1="41.8641039%" y1="14.6620999%" x2="41.8641039%" y2="96.7165715%" id="linearGradient-1">
            <stop stop-color="#8B939A" offset="0%"></stop>
            <stop stop-color="#5B6467" offset="37.9553052%"></stop>
            <stop stop-color="#31383A" offset="100%"></stop>
        </linearGradient>
        <linearGradient x1="39.2087816%" y1="10.3041512%" x2="80.3871596%" y2="111.868262%" id="linearGradient-2">
            <stop stop-color="#E0C094" offset="0%"></stop>
            <stop stop-color="#8B622C" offset="100%"></stop>
        </linearGradient>
    </defs>
    <g id="Delete-Account" stroke="none" stroke-width="1" fill="none" fill-rule="evenodd">
        <g id="Settings-Confirm-Password" transform="translate(-291.000000, -168.000000)">
            <g id="password" transform="translate(291.000000, 168.000000)">
                <g id="safe">
                    <polygon id="Path-3" fill="#FFFFFF" points="4.36428571 19.2174532 40.0259719 35.0963835 36.8422449 86.9767968 2.41764159 73.0671775 2.41764159 20.8023825"></polygon>
                    <path d="M4.3652449,26.4051726 C4.81893878,26.6449686 5.15753061,27.1101726 5.15753061,27.8007849 L5.15753061,35.770642 C5.15753061,36.4602951 4.81797959,36.9254992 4.3652449,37.1643359 L4.3652449,55.7696216 C4.81893878,56.0094175 5.15753061,56.4717441 5.15753061,57.1633155 L5.15753061,65.1312543 C5.15753061,65.8228257 4.81797959,66.2870706 4.3652449,66.5249481 L4.3652449,67.2126828 C4.3652449,68.6437849 5.58820408,70.4345808 7.11138776,71.0810706 L32.4309592,81.7817237 C33.8054694,82.3591522 34.5613061,81.7481522 34.5613061,80.6460502 L34.5613061,38.6050298 C34.5613061,37.1720094 33.3393061,35.3812135 31.8142041,34.7376012 L6.49463265,24.0369481 C5.12108163,23.456642 4.36428571,24.0705196 4.36428571,25.1726216 L4.36428571,26.4051726 L4.3652449,26.4051726 Z M10.6987347,78.8562135 L6.2155102,80.7506012 C6.11,80.7937645 6.00928571,80.8100706 5.92295918,80.8033563 C5.83471429,80.8110298 5.73591837,80.7937645 5.63040816,80.7506012 L0.638816327,78.6413563 C0.384632653,78.5348869 0.166897959,78.295091 0.0642653061,78.0380298 C0.0220612245,77.9708869 0,77.8864788 0,77.7867237 L0,69.4964992 L0.00575510204,69.3727645 L0.00575510204,18.8132339 C0.00575510204,18.239642 0.127571429,17.7466216 0.346265306,17.346642 C0.963020408,15.6987645 2.35287755,14.1439277 3.97006122,13.460989 L35.0245918,0.340315494 C35.7545306,0.0324175351 36.4374694,-0.0596640975 37.0235306,0.0362542698 C37.5232653,0.0199481474 38.0786327,0.127376719 38.6627755,0.374846107 L69.7163469,13.4955196 C71.3105102,14.1688665 72.6840612,15.6891726 73.3152041,17.3111522 C73.5454082,17.7168869 73.6729796,18.2223767 73.6729796,18.8132339 L73.6729796,18.908193 L73.6806531,19.1336012 L73.6806531,69.4629277 L73.6844898,77.8164584 C73.6844898,77.95554 73.6643469,78.034193 73.6298163,78.0974992 C73.5300612,78.3612747 73.3075306,78.6125808 73.0475918,78.7228869 L68.0531224,80.8321318 C67.9466531,80.8772135 67.8507347,80.8935196 67.7605714,80.8848869 C67.6742449,80.8944788 67.575449,80.8772135 67.4699388,80.8321318 L62.886,78.8964992 L42.9062041,87.3344379 L42.9042857,90.7740706 C42.9042857,90.9112339 42.885102,90.9898869 42.8515306,91.0551114 C42.7517755,91.3208053 42.5273265,91.570193 42.2693061,91.6824175 L37.2767551,93.7897441 C37.1702857,93.8348257 37.072449,93.8511318 36.9842041,93.8424992 C36.8959592,93.852091 36.7971633,93.8348257 36.6916531,93.7897441 L31.699102,91.6824175 C31.4458776,91.5740298 31.2271837,91.3342339 31.1235918,91.0771726 C31.0823469,91.0100298 31.0602857,90.92754 31.0602857,90.8239481 L31.0602857,87.4572135 L10.6987347,78.8562135 L10.6987347,78.8562135 Z M7.97273469,52.0556624 C8.45232653,54.1274992 10.0618367,55.4857032 11.5677551,55.0905196 C13.0736735,54.6972543 13.9062449,52.6963971 13.4266531,50.6245604 C12.9470612,48.5527237 11.337551,47.1926012 9.83355102,47.5877849 C8.3247551,47.9829686 7.49314286,49.9838257 7.97273469,52.0556624 L7.97273469,52.0556624 Z M9.67432653,45.9303155 C10.34,44.1615808 11.5706327,42.8407849 13.1772653,42.4187441 C16.2428163,41.6149481 19.5165102,44.3812339 20.4910408,48.5997237 C21.4665306,52.8182135 19.7716531,56.8880298 16.7080204,57.6918257 C15.2404694,58.0754992 13.7259184,57.6448257 12.4396531,56.6242543 C12.2938571,56.6894788 12.1423061,56.7422339 11.9859592,56.7834788 C9.8172449,57.3513155 7.49889796,55.3936216 6.80828571,52.408642 C6.11863265,49.4246216 7.31761224,46.5422747 9.48728571,45.9744379 L9.67432653,45.9303155 L9.67432653,45.9303155 Z M22.5360204,62.0858461 L22.5360204,54.5735196 C22.5360204,52.5745808 23.6534694,50.5420706 25.2524286,49.2174379 C25.2610612,47.6194379 26.0341633,46.2631522 27.2465714,45.9456624 C28.753449,45.5504788 30.362,46.9106012 30.8415918,48.9833971 C31.3211837,51.0552339 30.4886122,53.056091 28.9826939,53.453193 C28.3266122,53.6239277 27.6523061,53.4647032 27.0585714,53.0580094 C26.7084694,53.5673359 26.4984082,54.1274992 26.4984082,54.5735196 L26.4984082,62.0858461 C26.4993673,64.7255196 22.5360204,64.7255196 22.5360204,62.0858461 L22.5360204,62.0858461 Z" id="Shape" fill="url(#linearGradient-1)" fill-rule="nonzero"></path>
                </g>
                <g id="shield" transform="translate(40.000000, 15.000000)">
                    <polygon id="Path-2" fill="#FFFFFF" points="31.2935 68.1605183 45.86274 53.7013137 52.8674907 42.0137993 52.8674907 5.56553375 12.5489723 19.9587158 1.67589996 26.3550742 1.67589996 31.6401046 8.8950442 58.2688599 12.5489723 65.9934797 24.7337105 68.1605183"></polygon>
                    <path d="M0.76566,25.3839338 C0.254331,25.6382298 0,26.0237758 0,26.6608738 L0,57.4468738 C0,57.5753868 0,57.5753868 0.128513,57.7011698 L0.257026,58.3410118 L0.257026,58.4695248 L0.511322,59.1093668 L0.511322,59.2378798 L0.765618,59.7492088 C0.765618,59.8777218 0.894131,60.0035048 0.894131,60.0035048 L1.276947,60.5148338 C1.276947,60.5148338 1.276947,60.6433468 1.40546,60.6433468 L1.788276,61.1546758 C1.788276,61.1546758 1.788276,61.2831888 1.916789,61.2831888 L2.299605,61.7945178 L2.428118,61.7945178 L2.939447,62.1773338 L3.06796,62.3058468 L3.707802,62.6886628 L3.707802,62.8171758 L4.347644,63.1999918 L4.476157,63.1999918 L11.375007,66.5222617 L14.185927,67.7992018 C14.568743,68.0534978 15.080037,68.1820178 15.462867,68.3105308 C19.167967,69.4589508 23.764167,69.9703008 27.469267,69.9703008 C28.874727,69.9703008 30.151667,69.8417878 31.300157,69.7160047 C31.682973,69.7160047 31.939999,69.5874918 32.194267,69.4617087 C37.047787,65.1195388 42.540967,60.2630087 46.883067,54.8982088 C51.353757,49.4048187 54.547367,43.2747087 54.547367,36.8872087 L54.547367,5.33540875 C54.547367,5.20689575 54.547367,4.95259275 54.418854,4.69556675 C54.290341,4.44127075 54.036038,4.18423775 53.653194,4.05572475 L45.734794,0.09638475 C45.351978,-0.03212825 44.840684,-0.03212825 44.457854,0.09638475 L22.741754,10.3149848 C22.613241,10.3149848 22.487458,10.4434978 22.487458,10.4434978 L0.771358,25.3898977 L0.76566,25.3839338 Z M10.98426,31.2600838 L32.06056,16.8253838 L51.60316,7.62668375 L51.60316,36.8789838 C51.60316,42.4980938 48.66645,47.9914838 44.57866,53.1021838 C40.4908,58.0842238 35.25466,62.8090838 30.65496,66.8970838 C29.76085,66.8970838 28.61236,67.0255968 27.46121,67.0255968 C23.88463,67.0255968 19.66811,66.6427808 16.34871,65.4916168 C13.412,64.5975068 11.11236,63.1919768 10.98384,61.0209268 L10.98384,60.6381108 L10.98384,31.2570108 L10.98426,31.2600838 Z M34.23182,35.2221538 C31.67794,39.8213638 27.71853,37.5217938 30.27248,32.9225138 C32.95488,28.4518238 36.91429,30.7513938 34.23182,35.2221538 Z M33.849011,57.5759538 L36.531411,56.0419738 L36.531411,52.0826338 L33.849011,53.6166138 L33.849011,50.2943438 L36.531411,48.7603638 L36.531411,44.8010238 L33.849011,46.3350038 L33.849011,40.2045438 C34.871641,39.3104338 35.891611,38.0334238 36.659931,36.6279638 C42.536081,26.6641638 33.723221,21.5562638 27.972931,31.6459238 C24.524871,37.5220738 26.184641,43.2694238 30.783851,41.9926238 L30.783851,59.3638238 L33.849011,57.5759538 Z M30.143939,60.6411838 C25.673249,58.3415438 27.078709,60.6411838 27.078709,42.8870838 L24.141999,41.2273138 C18.265849,35.7339238 27.972889,20.5339138 34.743499,23.8561138 L37.425899,25.2615738 C42.407939,28.4553238 39.214189,37.0138738 35.254779,40.8449738 L35.254779,42.5047438 C38.577049,44.1645138 38.065699,43.2704038 38.065699,48.7637238 L36.531719,50.4234938 C38.448529,51.4461238 38.065699,51.5719138 38.065699,56.0426038 C38.065699,56.2968998 37.937186,56.5539328 37.811403,56.8082638 L31.552423,60.6391538 L30.146963,60.6391538 L30.143939,60.6411838 Z" id="Shape" fill="url(#linearGradient-2)" fill-rule="nonzero"></path>
                </g>
            </g>
        </g>
    </g>
</svg>