<?xml version="1.0" encoding="UTF-8"?>
<svg width="94px" height="94px" viewBox="0 0 94 94" version="1.1" xmlns="http://www.w3.org/2000/svg" xmlns:xlink="http://www.w3.org/1999/xlink">
    <title>Group 5</title>
    <defs>
        <polygon id="path-1" points="0.001640625 0.00109375 28 0.00109375 28 27.8299219 0.001640625 27.8299219"></polygon>
    </defs>
    <g id="Log-In" stroke="none" stroke-width="1" fill="none" fill-rule="evenodd">
        <g id="Click-on-recovery" transform="translate(-280.000000, -168.000000)">
            <g id="Group-5" transform="translate(280.000000, 168.000000)">
                <path d="M47,34.387 C50.2695,34.387 53.4141,34.92216 56.3555,35.9104 L56.3555,15.6404 C56.3555,11.3513 52.8672,7.8631 48.5782,7.8631 L45.422,7.8631 C41.1329,7.8631 37.6447,11.3514 37.6447,15.6404 L37.6447,29.6404 C37.6447,34.2927 30.5744,34.2927 30.5744,29.6404 L30.5744,15.6404 C30.5744,7.4842 37.2658,0.7924 45.4224,0.7924 L48.5786,0.7924 C56.727,0.7924 63.4266,7.4916 63.4266,15.6404 L63.4266,39.4024 C71.536,44.8712 76.4066,53.9764 76.4066,63.7974 C76.4066,80.0354 63.2346,93.2074 46.9966,93.2074 C30.7586,93.2074 17.5866,80.0354 17.5866,63.7974 C17.5866,47.5594 30.7586,34.3874 46.9966,34.3874 L47,34.387 Z M47,44.797 C57.496,44.797 66,53.3048 66,63.797 C66,74.2892 57.4961,82.797 47,82.797 C36.508,82.797 28,74.2931 28,63.797 C28,53.3009 36.5078,44.797 47,44.797 Z M47,41.4611 C34.664,41.4611 24.664,51.4611 24.664,63.7971 C24.664,76.1371 34.6601,86.1331 47,86.1331 C59.3399,86.1331 69.34,76.1331 69.34,63.7971 C69.34,51.4571 59.34,41.4611 47,41.4611 Z" id="Shape" fill="#000000" fill-rule="nonzero"></path>
                <g id="f_logo_RGB-Blue_1024" transform="translate(57.000000, 66.000000)">
                    <g id="Group-3">
                        <mask id="mask-2" fill="white">
                            <use xlink:href="#path-1"></use>
                        </mask>
                        <g id="Clip-2"></g>
                        <path d="M28,14 C28,6.26800781 21.7319922,0 14,0 C6.26800781,0 0,6.26800781 0,14 C0,20.9878047 5.11959766,26.7796484 11.8125,27.8299219 L11.8125,18.046875 L8.2578125,18.046875 L8.2578125,14 L11.8125,14 L11.8125,10.915625 C11.8125,7.406875 13.9026016,5.46875 17.1005078,5.46875 C18.6322227,5.46875 20.234375,5.7421875 20.234375,5.7421875 L20.234375,9.1875 L18.4690078,9.1875 C16.7298633,9.1875 16.1875,10.2666758 16.1875,11.3738242 L16.1875,14 L20.0703125,14 L19.4496094,18.046875 L16.1875,18.046875 L16.1875,27.8299219 C22.8804023,26.7796484 28,20.9878047 28,14" id="Fill-1" fill="#1877F2" mask="url(#mask-2)"></path>
                    </g>
                    <path d="M19.4496094,18.046875 L20.0703125,14 L16.1875,14 L16.1875,11.3738242 C16.1875,10.2666758 16.7298633,9.1875 18.4690078,9.1875 L20.234375,9.1875 L20.234375,5.7421875 C20.234375,5.7421875 18.6322227,5.46875 17.1005078,5.46875 C13.9026016,5.46875 11.8125,7.406875 11.8125,10.915625 L11.8125,14 L8.2578125,14 L8.2578125,18.046875 L11.8125,18.046875 L11.8125,27.8299219 C12.5252695,27.9417578 13.2558125,28 14,28 C14.7441875,28 15.4747305,27.9417578 16.1875,27.8299219 L16.1875,18.046875 L19.4496094,18.046875" id="Fill-4" fill="#FFFFFF"></path>
                </g>
                <g id="Google_-G-_Logo" transform="translate(66.000000, 3.000000)" fill-rule="nonzero">
                    <path d="M27.7025012,14.3150023 C27.7025012,13.3933357 27.6208345,12.5183357 27.4808345,11.666669 L14.2975012,11.666669 L14.2975012,16.9283357 L21.8458345,16.9283357 C21.5075012,18.6550023 20.5158345,20.1133357 19.0458345,21.1050023 L19.0458345,24.6050023 L23.5491678,24.6050023 C26.1858345,22.166669 27.7025012,18.5733357 27.7025012,14.3150023 Z" id="Path" fill="#4285F4"></path>
                    <path d="M14.2975012,28.0000023 C18.0775012,28.0000023 21.2391678,26.7400023 23.5491678,24.6050023 L19.0458345,21.1050023 C17.7858345,21.9450023 16.1875012,22.4583357 14.2975012,22.4583357 C10.6458345,22.4583357 7.55416783,19.996669 6.4458345,16.671669 L1.80250117,16.671669 L1.80250117,20.276669 C4.1008345,24.8500023 8.8258345,28.0000023 14.2975012,28.0000023 Z" id="Path" fill="#34A853"></path>
                    <path d="M6.4458345,16.671669 C6.15416783,15.831669 6.00250117,14.9333357 6.00250117,14.0000023 C6.00250117,13.066669 6.1658345,12.1683357 6.4458345,11.3283357 L6.4458345,7.72333567 L1.80250117,7.72333567 C0.8458345,9.61333567 0.297501167,11.736669 0.297501167,14.0000023 C0.297501167,16.2633357 0.8458345,18.386669 1.80250117,20.276669 L6.4458345,16.671669 Z" id="Path" fill="#FBBC05"></path>
                    <path d="M14.2975012,5.541669 C16.3625012,5.541669 18.2058345,6.25333567 19.6641678,7.641669 L23.6541678,3.651669 C21.2391678,1.38833567 18.0775012,2.33333333e-06 14.2975012,2.33333333e-06 C8.8258345,2.33333333e-06 4.1008345,3.15000233 1.80250117,7.72333567 L6.4458345,11.3283357 C7.55416783,8.00333567 10.6458345,5.541669 14.2975012,5.541669 Z" id="Path" fill="#EA4335"></path>
                </g>
                <g id="VK.com-logo" transform="translate(0.000000, 32.000000)" fill-rule="nonzero">
                    <path d="M9.70666667,0 L18.2933333,0 C26.1333333,0 28,1.86666667 28,9.70666667 L28,18.2933333 C28,26.1333333 26.1333333,28 18.2933333,28 L9.70666667,28 C1.86666667,28 0,26.1333333 0,18.2933333 L0,9.70666667 C0,1.86666667 1.86666667,0 9.70666667,0 Z" id="path2" fill="#2787F5"></path>
                    <path d="M22.9299583,9.64632375 C23.0596858,9.21371646 22.9299583,8.89583333 22.312535,8.89583333 L20.2708683,8.89583333 C19.751741,8.89583333 19.5124154,9.1704375 19.382615,9.47324583 C19.382615,9.47324583 18.3443575,12.0039704 16.8735292,13.6478417 C16.3976794,14.1236915 16.1813575,14.2750942 15.9217917,14.2750942 C15.7920292,14.2750942 15.6041667,14.12369 15.6041667,13.6911192 L15.6041667,9.64632521 C15.6041667,9.127195 15.4535121,8.89583333 15.0208683,8.89583333 L11.812535,8.89583333 C11.4881258,8.89583333 11.2930227,9.13677333 11.2930227,9.36512062 C11.2930227,9.85724396 12.0284004,9.97073437 12.1042017,11.3550777 L12.1042017,14.3616521 C12.1042017,15.0208333 11.9851579,15.1403438 11.7255935,15.1403438 C11.0334583,15.1403438 9.34983729,12.5983142 8.35129313,9.68956625 C8.15560375,9.12420833 7.95932812,8.89583333 7.437535,8.89583333 L5.39586833,8.89583333 C4.812535,8.89583333 4.6958625,9.1704375 4.6958625,9.47324583 C4.6958625,10.0140133 5.38803271,12.6961421 7.91872229,16.243449 C9.60583604,18.6659769 11.9828683,19.9791667 14.1458683,19.9791667 C15.4436538,19.9791667 15.6042017,19.6875 15.6042017,19.1851042 L15.6042017,17.3541667 C15.6042017,16.7708333 15.7271465,16.654416 16.138115,16.654416 C16.4409219,16.654416 16.9600506,16.8058202 18.1713496,17.9738417 C19.5556579,19.3581485 19.7838783,19.9791667 20.562535,19.9791667 L22.6042017,19.9791667 C23.187535,19.9791667 23.4792017,19.6875 23.310945,19.1119119 C23.1268202,18.5382473 22.4658875,17.7059371 21.5888925,16.7192973 C21.1130077,16.1569275 20.3992323,15.5513123 20.1829104,15.248434 C19.8801035,14.8591421 19.966625,14.6860627 20.1829104,14.3400133 C20.1829104,14.3400133 22.6703925,10.835949 22.9299583,9.64632375 L22.9299583,9.64632375 Z" id="path4" fill="#FFFFFF"></path>
                </g>
            </g>
        </g>
    </g>
</svg>