<?xml version="1.0" encoding="UTF-8"?>
<svg width="24px" height="24px" viewBox="0 0 24 24" version="1.1" xmlns="http://www.w3.org/2000/svg" xmlns:xlink="http://www.w3.org/1999/xlink">
    <title>vk_logo</title>
    <g id="Trusted-Account" stroke="none" stroke-width="1" fill="none" fill-rule="evenodd">
        <g id="Recover-Wallet" transform="translate(-310.000000, -511.000000)" fill-rule="nonzero">
            <g id="VK-Button" transform="translate(163.000000, 499.000000)">
                <g id="vk_logo" transform="translate(147.000000, 12.000000)">
                    <path d="M8.32,0 L15.68,0 C22.4,0 24,1.6 24,8.32 L24,15.68 C24,22.4 22.4,24 15.68,24 L8.32,24 C1.6,24 0,22.4 0,15.68 L0,8.32 C0,1.6 1.6,0 8.32,0 Z" id="path2" fill="#2787F5"></path>
                    <path d="M19.65425,8.2682775 C19.765445,7.89747125 19.65425,7.625 19.12503,7.625 L17.37503,7.625 C16.9300637,7.625 16.7249275,7.860375 16.61367,8.119925 C16.61367,8.119925 15.723735,10.2891175 14.463025,11.69815 C14.0551537,12.1060212 13.869735,12.235795 13.64725,12.235795 C13.536025,12.235795 13.375,12.10602 13.375,11.735245 L13.375,8.26827875 C13.375,7.82331 13.2458675,7.625 12.87503,7.625 L10.12503,7.625 C9.846965,7.625 9.67973375,7.83152 9.67973375,8.02724625 C9.67973375,8.44906625 10.3100575,8.54634375 10.37503,9.73292375 L10.37503,12.3099875 C10.37503,12.875 10.2729925,12.9774375 10.0505087,12.9774375 C9.45725,12.9774375 8.01414625,10.798555 7.15825125,8.3053425 C6.9905175,7.82075 6.82228125,7.625 6.37503,7.625 L4.62503,7.625 C4.12503,7.625 4.025025,7.860375 4.025025,8.119925 C4.025025,8.58344 4.61831375,10.8824075 6.78747625,13.9229562 C8.23357375,15.9994087 10.27103,17.125 12.12503,17.125 C13.2374175,17.125 13.37503,16.875 13.37503,16.444375 L13.37503,14.875 C13.37503,14.375 13.4804112,14.2752137 13.83267,14.2752137 C14.0922187,14.2752137 14.5371862,14.4049887 15.5754425,15.40615 C16.7619925,16.5926987 16.95761,17.125 17.62503,17.125 L19.37503,17.125 C19.87503,17.125 20.12503,16.875 19.98081,16.3816387 C19.8229887,15.8899262 19.256475,15.1765175 18.504765,14.3308262 C18.0968637,13.848795 17.4850562,13.3296962 17.2996375,13.0700862 C17.0400887,12.7364075 17.11425,12.5880537 17.2996375,12.29144 C17.2996375,12.29144 19.431765,9.28795625 19.65425,8.2682775 L19.65425,8.2682775 Z" id="path4" fill="#FFFFFF"></path>
                </g>
            </g>
        </g>
    </g>
</svg>