<?xml version="1.0" encoding="UTF-8"?>
<svg width="24px" height="24px" viewBox="0 0 24 24" version="1.1" xmlns="http://www.w3.org/2000/svg" xmlns:xlink="http://www.w3.org/1999/xlink">
    <title>vk_logo_white</title>
    <g id="Icons" stroke="none" stroke-width="1" fill="none" fill-rule="evenodd">
        <g id="White-Social-Icons" transform="translate(-79.000000, -30.000000)" fill="#FFFFFF" fill-rule="nonzero">
            <path d="M94.68,30 C101.4,30 103,31.6 103,38.32 L103,45.68 C103,52.4 101.4,54 94.68,54 L87.32,54 C80.6,54 79,52.4 79,45.68 L79,38.32 C79,31.6 80.6,30 87.32,30 L94.68,30 Z M85.37503,37.625 L83.62503,37.625 C83.12503,37.625 83.025025,37.860375 83.025025,38.119925 C83.025025,38.58344 83.6183138,40.8824075 85.7874763,43.9229562 C87.2335738,45.9994088 89.27103,47.125 91.12503,47.125 C92.2374175,47.125 92.37503,46.875 92.37503,46.444375 L92.37503,44.875 C92.37503,44.375 92.4804113,44.2752137 92.83267,44.2752137 C93.0922188,44.2752137 93.5371863,44.4049888 94.5754425,45.40615 C95.7619925,46.5926987 95.95761,47.125 96.62503,47.125 L98.37503,47.125 C98.87503,47.125 99.12503,46.875 98.98081,46.3816387 C98.8229888,45.8899262 98.256475,45.1765175 97.504765,44.3308263 C97.0968638,43.848795 96.4850563,43.3296962 96.2996375,43.0700863 C96.0400888,42.7364075 96.11425,42.5880538 96.2996375,42.29144 L96.3070775,42.2809305 L96.3070775,42.2809305 L96.3636142,42.2005355 C96.7203312,41.6912593 98.4547807,39.1824722 98.65425,38.2682775 C98.765445,37.8974713 98.65425,37.625 98.12503,37.625 L96.37503,37.625 C95.9300638,37.625 95.7249275,37.860375 95.61367,38.119925 C95.61367,38.119925 94.723735,40.2891175 93.463025,41.69815 C93.0551538,42.1060212 92.869735,42.235795 92.64725,42.235795 C92.536025,42.235795 92.375,42.10602 92.375,41.735245 L92.375,38.2682788 C92.375,37.82331 92.2458675,37.625 91.87503,37.625 L89.12503,37.625 C88.846965,37.625 88.6797338,37.83152 88.6797338,38.0272462 C88.6797338,38.4490663 89.3100575,38.5463437 89.37503,39.7329237 L89.37503,42.3099875 C89.37503,42.875 89.2729925,42.9774375 89.0505088,42.9774375 C88.45725,42.9774375 87.0141463,40.798555 86.1582513,38.3053425 C85.9905175,37.82075 85.8222813,37.625 85.37503,37.625 Z" id="vk_logo_white"></path>
        </g>
    </g>
</svg>