<?xml version="1.0" encoding="UTF-8"?>
<svg width="117px" height="20px" viewBox="0 0 117 20" version="1.1" xmlns="http://www.w3.org/2000/svg" xmlns:xlink="http://www.w3.org/1999/xlink">
    <title>Group 2</title>
    <g id="Examples" stroke="none" stroke-width="1" fill="none" fill-rule="evenodd">
        <g id="Log-In-Error" transform="translate(-163.000000, -118.000000)" fill="#333333">
            <g id="Group-2" transform="translate(163.000000, 118.000000)">
                <path d="M15.3999353,9.32927335 L17.5303576,10.7926754 L14.6086296,20 L7.12169907,20 L3.59129668,17.7438976 L12.7216812,17.7438976 L15.3999353,9.32927335 Z M13.1477656,3.84145331 L21,9.51218825 L18.6868844,17.0731544 L15.5825458,19.3902353 L18.3825266,10.548782 L11.1390906,5.42683321 C11.8759787,4.8553381 12.4108775,4.41296914 13.1477656,3.84145331 Z M1.15651647,5.79268374 L4.32171835,14.5731585 L12.9042917,14.5731585 L12.2347334,16.951218 L2.49563319,16.951218 L2.13162821e-14,9.51218825 L1.15651647,5.79268374 Z M11.8695122,1.24344979e-14 L4.50432893,5.54876957 L7.12169907,13.7804789 L4.74780282,13.7804789 L1.70434822,4.75608998 L8.15647859,1.24344979e-14 L11.8695122,1.24344979e-14 Z M13.1477656,0 L19.5999167,4.75608998 L20.8173688,8.53657304 L13.1477656,2.92683735 C13.1477656,2.92683735 11.2457012,4.4002034 9.15360477,5.95394715 L8.733159,6.26535487 C8.6628315,6.31729719 8.59241967,6.36922564 8.52198692,6.42108862 L8.09964664,6.73106815 L8.09964664,6.73106815 L7.67984787,7.03700003 C7.12316324,7.44111012 6.58137228,7.82782268 6.0869402,8.17072251 L6.0869402,8.17072251 L5.29563457,5.79268374 L13.1477656,0 Z" id="logo_white"></path>
                <path d="M93.4995181,12.9203819 L93.5001042,15.7802728 L101.148604,15.7802728 L101.148604,18 L90.7317632,18 L90.7315181,12.9203819 L93.4995181,12.9203819 Z M54.5412672,2.0003819 L60.5703418,18 L57.6816382,18 L56.3795331,14.2748142 L52.3982872,14.2743819 L53.1672872,12.0323819 L55.6026469,12.0331095 L53.2938724,5.39590525 L51.9712872,9.1963819 L51.9678514,9.19606086 L51.7372872,9.8673819 L50.985098,12.0331095 L50.9942872,12.0323819 L50.2252872,14.2743819 L50.2082118,14.2748142 L48.9170488,18 L46.0392872,18 L52.0574198,2.0003819 L54.5412672,2.0003819 Z M74.0279346,15.7793819 L74.2442684,15.7802728 L74.2442684,18 L64.2432263,18 L64.2429346,15.7863819 L74.0283451,15.7870125 L74.0279346,15.7793819 Z M87.4735369,15.7793819 L87.6898708,15.7802728 L87.6898708,18 L77.6888287,18 L77.6885369,15.7863819 L87.4739475,15.7870125 L87.4735369,15.7793819 Z M112.031624,6.2973819 L112.032305,18 L109.285848,18 L109.285624,6.2973819 L112.031624,6.2973819 Z M36.5809712,2.0003819 L39.5900375,14.0440505 L42.0410588,2.0003819 L44.7875156,2.0003819 L41.1109837,18 L38.4630054,18 L35.432055,6.31896014 L33.352,14.163 L32.364,9.496 L34.2612547,2.0003819 L36.5809712,2.0003819 Z M28.678,2 L31.099,13.438 L31.2193622,14.022073 L31.221,14.015 L32.064,17.999 L29.6765319,18 L26,2.0003819 L28.678,2 Z M67.0115673,2.0003819 L67.0109346,13.7233819 L64.2429346,13.7233819 L64.2432263,2.0003819 L67.0115673,2.0003819 Z M80.4571697,2.0003819 L80.4565369,13.7233819 L77.6885369,13.7233819 L77.6888287,2.0003819 L80.4571697,2.0003819 Z M93.4995181,6.2973819 L93.5001042,8.65956361 L100.043456,8.65956361 L100.043456,10.8573133 L93.5001042,10.8573133 L93.4995181,10.8583819 L90.7315181,10.8583819 L90.7315181,6.2973819 L93.4995181,6.2973819 Z M101.072009,2.0003819 L101.071518,4.2343819 L90.7315181,4.2343819 L90.7317632,2.0003819 L101.072009,2.0003819 Z M117,2.0003819 L116.999624,4.2343819 L104.361624,4.2343819 L104.361922,2.0003819 L117,2.0003819 Z" id="Combined-Shape" fill-rule="nonzero"></path>
            </g>
        </g>
    </g>
</svg>