<?xml version="1.0" encoding="UTF-8" standalone="no"?><svg xmlns="http://www.w3.org/2000/svg" xmlns:xlink="http://www.w3.org/1999/xlink" contentScriptType="application/ecmascript" contentStyleType="text/css" height="1194px" preserveAspectRatio="none" style="width:1365px;height:1194px;" version="1.1" viewBox="0 0 1365 1194" width="1365px" zoomAndPan="magnify"><defs><filter height="300%" id="ffcx9ave66gv7" width="300%" x="-1" y="-1"><feGaussianBlur result="blurOut" stdDeviation="2.0"/><feColorMatrix in="blurOut" result="blurOut2" type="matrix" values="0 0 0 0 0 0 0 0 0 0 0 0 0 0 0 0 0 0 .4 0"/><feOffset dx="4.0" dy="4.0" in="blurOut2" result="blurOut3"/><feBlend in="SourceGraphic" in2="blurOut3" mode="normal"/></filter></defs><g><rect fill="#F5FFF8" height="1169.625" style="stroke: #F5FFF8; stroke-width: 1.0;" width="703.5" x="10" y="12.7451"/><ellipse cx="365.5" cy="48.6982" fill="#000000" filter="url(#ffcx9ave66gv7)" rx="10" ry="10" style="stroke: none; stroke-width: 1.0;"/><rect fill="#FEFECE" filter="url(#ffcx9ave66gv7)" height="33.9688" rx="12.5" ry="12.5" style="stroke: #A80036; stroke-width: 1.5;" width="89" x="321" y="93.6982"/><text fill="#000000" font-family="sans-serif" font-size="12" lengthAdjust="spacingAndGlyphs" textLength="69" x="331" y="114.8369">Login Page</text><path d="M20,162.667 L20,233.1982 A0,0 0 0 0 20,233.1982 L234,233.1982 A0,0 0 0 0 234,233.1982 L234,201.9326 L254,197.9326 L234,193.9326 L234,172.667 L224,162.667 L20,162.667 A0,0 0 0 0 20,162.667 " fill="#FBFB77" filter="url(#ffcx9ave66gv7)" style="stroke: #A80036; stroke-width: 1.0;"/><path d="M224,162.667 L224,172.667 L234,172.667 L224,162.667 " fill="#FBFB77" style="stroke: #A80036; stroke-width: 1.0;"/><text fill="#000000" font-family="sans-serif" font-size="13" lengthAdjust="spacingAndGlyphs" textLength="170" x="26" y="179.7339">The password is requested</text><text fill="#000000" font-family="sans-serif" font-size="13" lengthAdjust="spacingAndGlyphs" textLength="189" x="26" y="194.8667">from the user for UX reasons,</text><text fill="#000000" font-family="sans-serif" font-size="13" lengthAdjust="spacingAndGlyphs" textLength="152" x="26" y="209.9995">hashed and temporarily</text><text fill="#000000" font-family="sans-serif" font-size="13" lengthAdjust="spacingAndGlyphs" textLength="90" x="26" y="225.1323">stored in vuex</text><rect fill="#98FB98" filter="url(#ffcx9ave66gv7)" height="33.9688" rx="12.5" ry="12.5" style="stroke: #A80036; stroke-width: 1.5;" width="223" x="254" y="180.9482"/><text fill="#000000" font-family="sans-serif" font-size="12" lengthAdjust="spacingAndGlyphs" textLength="203" x="264" y="202.0869">User Enters Email and Password</text><rect fill="#FEFECE" filter="url(#ffcx9ave66gv7)" height="61.9063" rx="12.5" ry="12.5" style="stroke: #A80036; stroke-width: 1.5;" width="352" x="189.5" y="268.1982"/><ellipse cx="205" cy="284.667" fill="#000000" rx="2.5" ry="2.5" style="stroke: #000000; stroke-width: 0.0;"/><text fill="#000000" font-family="sans-serif" font-size="12" lengthAdjust="spacingAndGlyphs" textLength="169" x="210.5" y="289.3369">Wallet checks if user exists</text><ellipse cx="205" cy="298.6357" fill="#000000" rx="2.5" ry="2.5" style="stroke: #000000; stroke-width: 0.0;"/><text fill="#000000" font-family="sans-serif" font-size="12" lengthAdjust="spacingAndGlyphs" textLength="321" x="210.5" y="303.3057">Wallet fetches Payload (2fa settings) from Backend</text><ellipse cx="205" cy="312.6045" fill="#000000" rx="2.5" ry="2.5" style="stroke: #000000; stroke-width: 0.0;"/><text fill="#000000" font-family="sans-serif" font-size="12" lengthAdjust="spacingAndGlyphs" textLength="258" x="210.5" y="317.2744">sha356 hash password and store in vuex</text><polygon fill="#FEFECE" filter="url(#ffcx9ave66gv7)" points="286.5,365.1045,444.5,365.1045,456.5,377.1045,444.5,389.1045,286.5,389.1045,274.5,377.1045,286.5,365.1045" style="stroke: #A80036; stroke-width: 1.5;"/><text fill="#000000" font-family="sans-serif" font-size="11" lengthAdjust="spacingAndGlyphs" textLength="158" x="286.5" y="380.9126">Entry For Email In Database</text><text fill="#000000" font-family="sans-serif" font-size="11" lengthAdjust="spacingAndGlyphs" textLength="54" x="220.5" y="374.5103">not found</text><text fill="#000000" font-family="sans-serif" font-size="11" lengthAdjust="spacingAndGlyphs" textLength="65" x="456.5" y="374.5103">entry found</text><rect fill="#FFC0CB" filter="url(#ffcx9ave66gv7)" height="33.9688" rx="12.5" ry="12.5" style="stroke: #A80036; stroke-width: 1.5;" width="148" x="135" y="409.1045"/><text fill="#000000" font-family="sans-serif" font-size="12" lengthAdjust="spacingAndGlyphs" textLength="128" x="145" y="430.2432">show error message</text><rect fill="#D3D3D3" filter="url(#ffcx9ave66gv7)" height="33.9688" rx="12.5" ry="12.5" style="stroke: #A80036; stroke-width: 1.5;" width="166" x="126" y="478.0732"/><text fill="#000000" font-family="sans-serif" font-size="12" lengthAdjust="spacingAndGlyphs" textLength="146" x="136" y="499.2119">retry || route to /signup</text><rect fill="#FEFECE" filter="url(#ffcx9ave66gv7)" height="61.9063" rx="12.5" ry="12.5" style="stroke: #A80036; stroke-width: 1.5;" width="365" x="339.5" y="409.1045"/><ellipse cx="355" cy="425.5732" fill="#000000" rx="2.5" ry="2.5" style="stroke: #000000; stroke-width: 0.0;"/><text fill="#000000" font-family="sans-serif" font-size="12" lengthAdjust="spacingAndGlyphs" textLength="304" x="360.5" y="430.2432">Wallet fetches encrypted keystore from backend</text><ellipse cx="355" cy="439.542" fill="#000000" rx="2.5" ry="2.5" style="stroke: #000000; stroke-width: 0.0;"/><text fill="#000000" font-family="sans-serif" font-size="12" lengthAdjust="spacingAndGlyphs" textLength="301" x="360.5" y="444.2119">if 2fa is enabled then keystore is encrypted with</text><text fill="#000000" font-family="sans-serif" font-size="12" lengthAdjust="spacingAndGlyphs" textLength="345" x="349.5" y="458.1807">email/authenticator code by backend before sending it</text><rect fill="#FEFECE" filter="url(#ffcx9ave66gv7)" height="33.9688" rx="12.5" ry="12.5" style="stroke: #A80036; stroke-width: 1.5;" width="251" x="396.5" y="554.4131"/><text fill="#000000" font-family="sans-serif" font-size="12" lengthAdjust="spacingAndGlyphs" textLength="231" x="406.5" y="575.5518">Decrypt Keystore with 2fa email code</text><polygon fill="#FEFECE" filter="url(#ffcx9ave66gv7)" points="495.5,506.0107,548.5,506.0107,560.5,518.0107,548.5,530.0107,495.5,530.0107,483.5,518.0107,495.5,506.0107" style="stroke: #A80036; stroke-width: 1.5;"/><text fill="#000000" font-family="sans-serif" font-size="11" lengthAdjust="spacingAndGlyphs" textLength="45" x="526" y="540.2212">enabled</text><text fill="#000000" font-family="sans-serif" font-size="11" lengthAdjust="spacingAndGlyphs" textLength="53" x="495.5" y="521.8188">2fa email</text><polygon fill="#FEFECE" filter="url(#ffcx9ave66gv7)" points="522,612.7842,534,624.7842,522,636.7842,510,624.7842,522,612.7842" style="stroke: #A80036; stroke-width: 1.5;"/><rect fill="#FEFECE" filter="url(#ffcx9ave66gv7)" height="33.9688" rx="12.5" ry="12.5" style="stroke: #A80036; stroke-width: 1.5;" width="304" x="370" y="720.1865"/><text fill="#000000" font-family="sans-serif" font-size="12" lengthAdjust="spacingAndGlyphs" textLength="284" x="380" y="741.3252">Decrypt Keystore with 2fa authenticator code</text><polygon fill="#FEFECE" filter="url(#ffcx9ave66gv7)" points="473.5,671.7842,570.5,671.7842,582.5,683.7842,570.5,695.7842,473.5,695.7842,461.5,683.7842,473.5,671.7842" style="stroke: #A80036; stroke-width: 1.5;"/><text fill="#000000" font-family="sans-serif" font-size="11" lengthAdjust="spacingAndGlyphs" textLength="45" x="526" y="705.9946">enabled</text><text fill="#000000" font-family="sans-serif" font-size="11" lengthAdjust="spacingAndGlyphs" textLength="97" x="473.5" y="687.5923">2fa authenticator</text><polygon fill="#FEFECE" filter="url(#ffcx9ave66gv7)" points="522,778.5576,534,790.5576,522,802.5576,510,790.5576,522,778.5576" style="stroke: #A80036; stroke-width: 1.5;"/><rect fill="#FEFECE" filter="url(#ffcx9ave66gv7)" height="47.9375" rx="12.5" ry="12.5" style="stroke: #A80036; stroke-width: 1.5;" width="351" x="346.5" y="837.5576"/><ellipse cx="362" cy="854.0264" fill="#000000" rx="2.5" ry="2.5" style="stroke: #000000; stroke-width: 0.0;"/><text fill="#000000" font-family="sans-serif" font-size="12" lengthAdjust="spacingAndGlyphs" textLength="168" x="367.5" y="858.6963">Save Email in LocalStorage</text><ellipse cx="362" cy="867.9951" fill="#000000" rx="2.5" ry="2.5" style="stroke: #000000; stroke-width: 0.0;"/><text fill="#000000" font-family="sans-serif" font-size="12" lengthAdjust="spacingAndGlyphs" textLength="320" x="367.5" y="872.665">Save Password-Encrypted Keystore in LocalStorage</text><rect fill="#FFFFE0" height="1169.625" style="stroke: #FFFFE0; stroke-width: 1.0;" width="341" x="713.5" y="12.7451"/><rect fill="#FEFECE" filter="url(#ffcx9ave66gv7)" height="33.9688" rx="12.5" ry="12.5" style="stroke: #A80036; stroke-width: 1.5;" width="219" x="814" y="920.4951"/><text fill="#000000" font-family="sans-serif" font-size="12" lengthAdjust="spacingAndGlyphs" textLength="199" x="824" y="941.6338">Decrypt Keystore with Password</text><polygon fill="#FEFECE" filter="url(#ffcx9ave66gv7)" points="861.5,989.4639,985.5,989.4639,997.5,1001.4639,985.5,1013.4639,861.5,1013.4639,849.5,1001.4639,861.5,989.4639" style="stroke: #A80036; stroke-width: 1.5;"/><text fill="#000000" font-family="sans-serif" font-size="11" lengthAdjust="spacingAndGlyphs" textLength="124" x="861.5" y="1005.272">Unlock With Password</text><text fill="#000000" font-family="sans-serif" font-size="11" lengthAdjust="spacingAndGlyphs" textLength="110" x="739.5" y="998.8696">password incorrect</text><text fill="#000000" font-family="sans-serif" font-size="11" lengthAdjust="spacingAndGlyphs" textLength="47" x="997.5" y="998.8696">success</text><rect fill="#FFC0CB" filter="url(#ffcx9ave66gv7)" height="33.9688" rx="12.5" ry="12.5" style="stroke: #A80036; stroke-width: 1.5;" width="160" x="723.5" y="1033.4639"/><text fill="#000000" font-family="sans-serif" font-size="12" lengthAdjust="spacingAndGlyphs" textLength="140" x="733.5" y="1054.6025">show recovery options</text><ellipse cx="803.5" cy="1112.4326" fill="#FFFFFF" filter="url(#ffcx9ave66gv7)" rx="10" ry="10" style="stroke: #000000; stroke-width: 1.5;"/><line style="stroke: #000000; stroke-width: 2.5;" x1="797.3128" x2="809.6872" y1="1106.2454" y2="1118.6198"/><line style="stroke: #000000; stroke-width: 2.5;" x1="809.6872" x2="797.3128" y1="1106.2454" y2="1118.6198"/><rect fill="#90EE90" height="1169.625" style="stroke: #90EE90; stroke-width: 1.0;" width="299" x="1054.5" y="12.7451"/><rect fill="#FEFECE" filter="url(#ffcx9ave66gv7)" height="47.9375" rx="12.5" ry="12.5" style="stroke: #A80036; stroke-width: 1.5;" width="280" x="1064.5" y="1033.4639"/><ellipse cx="1080" cy="1049.9326" fill="#000000" rx="2.5" ry="2.5" style="stroke: #000000; stroke-width: 0.0;"/><text fill="#000000" font-family="sans-serif" font-size="12" lengthAdjust="spacingAndGlyphs" textLength="249" x="1085.5" y="1054.6025">Save hashed password in session store</text><ellipse cx="1080" cy="1063.9014" fill="#000000" rx="2.5" ry="2.5" style="stroke: #000000; stroke-width: 0.0;"/><text fill="#000000" font-family="sans-serif" font-size="12" lengthAdjust="spacingAndGlyphs" textLength="204" x="1085.5" y="1068.5713">Init vuex datastore: address etc.</text><rect fill="#90EE90" filter="url(#ffcx9ave66gv7)" height="33.9688" rx="12.5" ry="12.5" style="stroke: #A80036; stroke-width: 1.5;" width="92" x="1158.5" y="1116.4014"/><text fill="#000000" font-family="sans-serif" font-size="12" lengthAdjust="spacingAndGlyphs" textLength="72" x="1168.5" y="1137.54">show wallet</text><line style="stroke: #A80036; stroke-width: 1.5;" x1="365.5" x2="365.5" y1="58.6982" y2="93.6982"/><polygon fill="#A80036" points="361.5,83.6982,365.5,93.6982,369.5,83.6982,365.5,87.6982" style="stroke: #A80036; stroke-width: 1.0;"/><line style="stroke: #A80036; stroke-width: 1.5;" x1="365.5" x2="365.5" y1="127.667" y2="180.9482"/><polygon fill="#A80036" points="361.5,170.9482,365.5,180.9482,369.5,170.9482,365.5,174.9482" style="stroke: #A80036; stroke-width: 1.0;"/><line style="stroke: #A80036; stroke-width: 1.5;" x1="365.5" x2="365.5" y1="214.917" y2="268.1982"/><polygon fill="#A80036" points="361.5,258.1982,365.5,268.1982,369.5,258.1982,365.5,262.1982" style="stroke: #A80036; stroke-width: 1.0;"/><line style="stroke: #000000; stroke-width: 1.5; stroke-dasharray: 1.0,3.0;" x1="209" x2="209" y1="443.0732" y2="478.0732"/><polygon fill="#000000" points="205,468.0732,209,478.0732,213,468.0732,209,472.0732" style="stroke: #000000; stroke-width: 1.0;"/><line style="stroke: #A80036; stroke-width: 1.5;" x1="522" x2="522" y1="530.0107" y2="554.4131"/><polygon fill="#A80036" points="518,544.4131,522,554.4131,526,544.4131,522,548.4131" style="stroke: #A80036; stroke-width: 1.0;"/><line style="stroke: #A80036; stroke-width: 1.5;" x1="560.5" x2="657.5" y1="518.0107" y2="518.0107"/><polygon fill="#A80036" points="653.5,561.3975,657.5,571.3975,661.5,561.3975,657.5,565.3975" style="stroke: #A80036; stroke-width: 1.5;"/><line style="stroke: #A80036; stroke-width: 1.5;" x1="657.5" x2="657.5" y1="518.0107" y2="624.7842"/><line style="stroke: #A80036; stroke-width: 1.5;" x1="657.5" x2="534" y1="624.7842" y2="624.7842"/><polygon fill="#A80036" points="544,620.7842,534,624.7842,544,628.7842,540,624.7842" style="stroke: #A80036; stroke-width: 1.0;"/><line style="stroke: #A80036; stroke-width: 1.5;" x1="522" x2="522" y1="588.3818" y2="612.7842"/><polygon fill="#A80036" points="518,602.7842,522,612.7842,526,602.7842,522,606.7842" style="stroke: #A80036; stroke-width: 1.0;"/><line style="stroke: #A80036; stroke-width: 1.5;" x1="522" x2="522" y1="471.0107" y2="506.0107"/><polygon fill="#A80036" points="518,496.0107,522,506.0107,526,496.0107,522,500.0107" style="stroke: #A80036; stroke-width: 1.0;"/><line style="stroke: #A80036; stroke-width: 1.5;" x1="522" x2="522" y1="695.7842" y2="720.1865"/><polygon fill="#A80036" points="518,710.1865,522,720.1865,526,710.1865,522,714.1865" style="stroke: #A80036; stroke-width: 1.0;"/><line style="stroke: #A80036; stroke-width: 1.5;" x1="582.5" x2="684" y1="683.7842" y2="683.7842"/><polygon fill="#A80036" points="680,727.1709,684,737.1709,688,727.1709,684,731.1709" style="stroke: #A80036; stroke-width: 1.5;"/><line style="stroke: #A80036; stroke-width: 1.5;" x1="684" x2="684" y1="683.7842" y2="790.5576"/><line style="stroke: #A80036; stroke-width: 1.5;" x1="684" x2="534" y1="790.5576" y2="790.5576"/><polygon fill="#A80036" points="544,786.5576,534,790.5576,544,794.5576,540,790.5576" style="stroke: #A80036; stroke-width: 1.0;"/><line style="stroke: #A80036; stroke-width: 1.5;" x1="522" x2="522" y1="754.1553" y2="778.5576"/><polygon fill="#A80036" points="518,768.5576,522,778.5576,526,768.5576,522,772.5576" style="stroke: #A80036; stroke-width: 1.0;"/><line style="stroke: #A80036; stroke-width: 1.5;" x1="522" x2="522" y1="636.7842" y2="671.7842"/><polygon fill="#A80036" points="518,661.7842,522,671.7842,526,661.7842,522,665.7842" style="stroke: #A80036; stroke-width: 1.0;"/><line style="stroke: #A80036; stroke-width: 1.5;" x1="522" x2="522" y1="802.5576" y2="837.5576"/><polygon fill="#A80036" points="518,827.5576,522,837.5576,526,827.5576,522,831.5576" style="stroke: #A80036; stroke-width: 1.0;"/><line style="stroke: #A80036; stroke-width: 1.5;" x1="274.5" x2="209" y1="377.1045" y2="377.1045"/><line style="stroke: #A80036; stroke-width: 1.5;" x1="209" x2="209" y1="377.1045" y2="409.1045"/><polygon fill="#A80036" points="205,399.1045,209,409.1045,213,399.1045,209,403.1045" style="stroke: #A80036; stroke-width: 1.0;"/><line style="stroke: #A80036; stroke-width: 1.5;" x1="456.5" x2="522" y1="377.1045" y2="377.1045"/><line style="stroke: #A80036; stroke-width: 1.5;" x1="522" x2="522" y1="377.1045" y2="409.1045"/><polygon fill="#A80036" points="518,399.1045,522,409.1045,526,399.1045,522,403.1045" style="stroke: #A80036; stroke-width: 1.0;"/><line style="stroke: #A80036; stroke-width: 1.5;" x1="365.5" x2="365.5" y1="330.1045" y2="365.1045"/><polygon fill="#A80036" points="361.5,355.1045,365.5,365.1045,369.5,355.1045,365.5,359.1045" style="stroke: #A80036; stroke-width: 1.0;"/><line style="stroke: #A80036; stroke-width: 1.5;" x1="803.5" x2="803.5" y1="1067.4326" y2="1102.4326"/><polygon fill="#A80036" points="799.5,1092.4326,803.5,1102.4326,807.5,1092.4326,803.5,1096.4326" style="stroke: #A80036; stroke-width: 1.0;"/><line style="stroke: #A80036; stroke-width: 1.5;" x1="849.5" x2="803.5" y1="1001.4639" y2="1001.4639"/><line style="stroke: #A80036; stroke-width: 1.5;" x1="803.5" x2="803.5" y1="1001.4639" y2="1033.4639"/><polygon fill="#A80036" points="799.5,1023.4639,803.5,1033.4639,807.5,1023.4639,803.5,1027.4639" style="stroke: #A80036; stroke-width: 1.0;"/><line style="stroke: #A80036; stroke-width: 1.5;" x1="923.5" x2="923.5" y1="954.4639" y2="989.4639"/><polygon fill="#A80036" points="919.5,979.4639,923.5,989.4639,927.5,979.4639,923.5,983.4639" style="stroke: #A80036; stroke-width: 1.0;"/><line style="stroke: #A80036; stroke-width: 1.5;" x1="1204.5" x2="1204.5" y1="1081.4014" y2="1116.4014"/><polygon fill="#A80036" points="1200.5,1106.4014,1204.5,1116.4014,1208.5,1106.4014,1204.5,1110.4014" style="stroke: #A80036; stroke-width: 1.0;"/><line style="stroke: #A80036; stroke-width: 1.5;" x1="522" x2="522" y1="885.4951" y2="902.9951"/><line style="stroke: #A80036; stroke-width: 1.5;" x1="522" x2="923.5" y1="902.9951" y2="902.9951"/><line style="stroke: #A80036; stroke-width: 1.5;" x1="923.5" x2="923.5" y1="902.9951" y2="920.4951"/><polygon fill="#A80036" points="919.5,910.4951,923.5,920.4951,927.5,910.4951,923.5,914.4951" style="stroke: #A80036; stroke-width: 1.0;"/><line style="stroke: #A80036; stroke-width: 1.5;" x1="997.5" x2="1204.5" y1="1001.4639" y2="1001.4639"/><line style="stroke: #A80036; stroke-width: 1.5;" x1="1204.5" x2="1204.5" y1="1001.4639" y2="1033.4639"/><polygon fill="#A80036" points="1200.5,1023.4639,1204.5,1033.4639,1208.5,1023.4639,1204.5,1027.4639" style="stroke: #A80036; stroke-width: 1.0;"/><text fill="#000000" font-family="sans-serif" font-size="18" lengthAdjust="spacingAndGlyphs" textLength="174" x="274.75" y="29.4531">Localstorage Empty</text><text fill="#000000" font-family="sans-serif" font-size="18" lengthAdjust="spacingAndGlyphs" textLength="294" x="737" y="29.4531">Encrypted Keystore In Localstore</text><text fill="#000000" font-family="sans-serif" font-size="18" lengthAdjust="spacingAndGlyphs" textLength="155" x="1126.5" y="29.4531">Unlock Successful</text><line style="stroke: #000000; stroke-width: 2.0;" x1="10" x2="10" y1="12.7451" y2="1182.3701"/><line style="stroke: #000000; stroke-width: 2.0;" x1="713.5" x2="713.5" y1="12.7451" y2="1182.3701"/><line style="stroke: #000000; stroke-width: 2.0;" x1="1054.5" x2="1054.5" y1="12.7451" y2="1182.3701"/><line style="stroke: #000000; stroke-width: 2.0;" x1="1353.5" x2="1353.5" y1="12.7451" y2="1182.3701"/><!--MD5=[3657e3069122b51535ac41886cbf9326]
@startuml
|#f5fff8|Localstorage Empty|
start
:Login Page;
#palegreen:User Enters Email and Password;
note left
  The password is requested 
  from the user for UX reasons, 
  hashed and temporarily 
  stored in vuex
end note
:* Wallet checks if user exists
* Wallet fetches Payload (2fa settings) from Backend
* sha356 hash password and store in vuex;
if(Entry For Email In Database) then (not found)
#pink:show error message;
-[#black,dotted]->

	#lightgrey:retry || route to /signup;
    kill;

else  (entry found) 
:* Wallet fetches encrypted keystore from backend
* if 2fa is enabled then keystore is encrypted with 
email/authenticator code by backend before sending it;
if (2fa email) then (enabled)
:Decrypt Keystore with 2fa email code;
endif
if (2fa authenticator) then (enabled)
:Decrypt Keystore with 2fa authenticator code;
endif
:* Save Email in LocalStorage
* Save Password-Encrypted Keystore in LocalStorage;

|#lightyellow|Encrypted Keystore In Localstore|

:Decrypt Keystore with Password;
	if(Unlock With Password) then (password incorrect)
    	#pink:show recovery options;
        end;
    else (success)
|#lightgreen|Unlock Successful|
		:* Save hashed password in session store
* Init vuex datastore: address etc.;
		#lightgreen:show wallet;
        kill;
    endif
endif
@enduml

PlantUML version 1.2019.11(Sun Sep 22 12:02:15 CEST 2019)
(GPL source distribution)
Java Runtime: OpenJDK Runtime Environment
JVM: OpenJDK 64-Bit Server VM
Java Version: 1.8.0_275-8u275-b01-0ubuntu1~16.04-b01
Operating System: Linux
Default Encoding: UTF-8
Language: en
Country: US
--></g></svg>